<?xml version="1.0" standalone="no"?>
<!DOCTYPE svg PUBLIC "-//W3C//DTD SVG 20010904//EN"
 "http://www.w3.org/TR/2001/REC-SVG-20010904/DTD/svg10.dtd">
<svg version="1.0" xmlns="http://www.w3.org/2000/svg"
 width="800.000000pt" height="600.000000pt" viewBox="0 0 800.000000 600.000000"
 preserveAspectRatio="xMidYMid meet">

<g transform="translate(0.000000,600.000000) scale(0.100000,-0.100000)"
fill="#000000" stroke="none">
<path d="M2075 3609 c-38 -4 -158 -7 -266 -8 -188 -1 -197 -2 -202 -21 -4 -17
0 -20 24 -20 24 0 29 -4 29 -25 l0 -25 174 0 174 0 17 -42 c9 -24 25 -74 34
-113 l18 -70 34 3 c19 2 36 5 37 7 9 8 13 244 5 280 l-8 40 -70 -6z"/>
<path d="M1140 3580 c0 -19 7 -20 108 -20 80 0 113 -4 128 -15 17 -13 2 -14
-138 -15 -151 0 -158 -1 -158 -20 0 -19 7 -20 128 -20 91 -1 134 -5 152 -15
23 -13 14 -14 -97 -15 l-123 0 0 -25 c0 -20 5 -25 25 -25 l25 0 0 -500 0 -500
-25 0 c-20 0 -25 -5 -25 -25 l0 -25 114 0 c174 0 155 -19 -21 -22 -145 -3
-148 -3 -151 -25 -3 -23 -3 -23 136 -23 112 0 142 -3 152 -15 11 -13 -2 -15
-109 -15 -114 0 -121 -1 -121 -20 0 -19 7 -20 185 -20 124 0 193 4 211 12 26
12 68 84 58 100 -3 4 -21 8 -40 8 -31 0 -34 2 -24 19 20 38 13 51 -30 51 l-40
0 0 499 0 499 35 6 c45 9 83 42 94 84 l10 32 -40 0 c-36 0 -39 2 -29 19 27 51
25 51 -190 51 -193 0 -200 -1 -200 -20z m124 -226 c3 -9 6 -225 6 -480 0 -406
-2 -464 -15 -464 -13 0 -15 60 -15 480 0 437 4 516 24 464z m70 -100 c3 -9 6
-202 6 -430 0 -361 -2 -414 -15 -414 -13 0 -15 54 -15 430 0 391 4 465 24 414z
m76 -470 c0 -243 -4 -374 -10 -374 -6 0 -10 134 -10 381 0 251 3 378 10 374 6
-4 10 -142 10 -381z"/>
<path d="M1934 3110 c-12 -70 -26 -101 -51 -111 -13 -5 -99 -9 -189 -9 l-165
0 3 -47 3 -48 185 -6 c102 -3 186 -6 187 -7 4 -5 22 -72 28 -105 5 -34 9 -38
28 -33 12 3 29 6 37 6 13 0 14 13 6 96 -6 58 -6 134 0 194 l9 98 -37 4 c-36 3
-38 2 -44 -32z"/>
<path d="M2513 3125 c-150 -41 -256 -152 -298 -310 -19 -76 -19 -234 0 -309
48 -183 191 -286 401 -286 138 0 239 42 318 132 83 95 117 193 119 338 1 147
-37 255 -119 337 -97 97 -273 137 -421 98z m174 -87 c86 -37 143 -118 168
-235 28 -132 13 -309 -34 -402 -42 -82 -140 -117 -243 -87 -139 40 -207 193
-195 435 7 152 46 243 120 283 38 20 143 24 184 6z"/>
<path d="M3375 3120 c-84 -22 -163 -52 -164 -62 -7 -56 -4 -58 59 -51 95 10
90 29 90 -338 l0 -319 -32 -20 c-18 -11 -52 -22 -75 -26 -24 -3 -43 -7 -43 -9
0 -1 5 -15 10 -31 l10 -29 104 9 c64 5 156 5 238 -1 73 -5 134 -8 136 -7 2 1
5 17 8 36 l6 35 -66 6 c-36 3 -79 13 -96 22 l-30 16 0 248 0 249 46 56 c43 53
105 96 138 96 34 0 67 -44 79 -107 11 -58 14 -63 38 -63 23 0 28 7 44 57 26
82 54 213 46 217 -3 2 -38 12 -77 22 -60 15 -78 16 -111 6 -51 -15 -100 -54
-160 -128 l-48 -58 -7 39 c-4 22 -7 58 -7 81 -1 42 -24 75 -52 73 -8 0 -45 -8
-84 -19z"/>
<path d="M4163 3125 c-76 -14 -172 -42 -187 -55 -5 -5 -6 -20 -2 -35 6 -24 9
-25 54 -20 34 5 53 2 67 -8 19 -15 20 -30 25 -314 5 -287 6 -300 28 -346 47
-94 127 -133 255 -125 81 5 147 34 233 99 28 22 53 39 56 39 3 0 8 -14 12 -30
3 -17 23 -49 44 -72 l39 -42 80 27 c44 14 99 29 122 33 33 5 41 11 41 28 0 36
-13 44 -67 44 -33 0 -63 6 -79 16 l-25 17 2 366 c1 316 -1 367 -14 380 -14 14
-25 14 -110 0 -95 -16 -184 -42 -201 -57 -5 -5 -6 -20 -2 -35 6 -25 8 -26 65
-19 94 10 91 20 91 -301 l0 -274 -26 -20 c-38 -30 -123 -68 -170 -75 -61 -11
-129 10 -163 50 -47 53 -54 111 -50 434 2 157 0 291 -4 298 -10 14 -20 14
-114 -3z"/>
<path d="M5280 3116 c-149 -40 -171 -55 -154 -100 5 -13 17 -14 64 -9 92 9 90
17 90 -344 0 -286 -1 -304 -19 -322 -20 -20 -79 -41 -115 -41 -15 0 -17 -5
-12 -32 3 -17 7 -32 9 -33 1 -1 50 3 108 8 68 6 145 6 210 0 57 -5 105 -9 107
-8 2 2 4 15 5 30 2 24 -3 29 -41 40 -23 7 -54 20 -67 29 l-25 16 0 280 0 279
47 32 c137 95 289 92 338 -6 18 -36 20 -64 23 -311 l3 -271 -26 -21 c-15 -12
-47 -24 -71 -28 -44 -6 -45 -7 -38 -38 3 -17 7 -31 8 -32 0 0 47 3 104 9 62 5
142 6 203 0 101 -9 101 -9 110 15 12 32 11 42 -3 42 -30 0 -91 23 -109 41 -18
18 -19 35 -19 292 l0 272 58 37 c147 95 285 91 330 -10 14 -31 17 -82 20 -302
4 -307 6 -301 -86 -323 -52 -12 -53 -13 -48 -41 4 -16 7 -30 9 -31 1 -1 50 3
108 8 68 6 145 6 210 0 57 -5 105 -9 106 -8 2 1 6 15 9 32 6 29 4 31 -33 38
-21 4 -52 13 -69 20 l-31 13 -6 298 c-5 337 -12 379 -72 439 -38 38 -113 65
-180 65 -86 0 -193 -47 -291 -126 -23 -19 -43 -34 -46 -34 -3 0 -9 11 -12 24
-9 36 -53 84 -100 108 -32 18 -59 22 -126 23 -99 0 -153 -21 -255 -98 -33 -25
-63 -43 -67 -38 -4 4 -11 29 -14 56 -7 50 -27 85 -48 85 -6 -1 -49 -11 -96
-24z"/>
</g>
</svg>
